<?xml version="1.0" encoding="utf-8"?>
<!-- Generator: Adobe Illustrator 28.0.0, SVG Export Plug-In . SVG Version: 6.00 Build 0)  -->
<svg version="1.1" id="Ebene_1" xmlns="http://www.w3.org/2000/svg" xmlns:xlink="http://www.w3.org/1999/xlink" x="0px" y="0px"
	 viewBox="0 0 500 500" style="enable-background:new 0 0 500 500;" xml:space="preserve">
<style type="text/css">
	.st0{fill:#04529E;}
</style>
<g>
	<g>
		<path class="st0" d="M-899.8,305.8h-5l-9,43h4.7c4.8,0,8.9-2,11.5-5.4c5.1-5.9,8.1-20.4,8.1-27.8
			C-889.5,306.5-894.5,305.8-899.8,305.8z"/>
		<path class="st0" d="M-903.9,118.1c16.1,0,29.1-13.1,29.1-29.1c0-16.1-13.1-29.1-29.1-29.1c-16.1,0-29.1,13.1-29.1,29.1
			C-933.1,105-920,118.1-903.9,118.1z M-907.4,68.4c0-1.9,1.5-3.4,3.4-3.4c1.9,0,3.4,1.5,3.4,3.4v12.3l7.9-7.9c0.6-0.6,1.5-1,2.4-1
			c1.9,0,3.4,1.5,3.4,3.4c0,0.9-0.4,1.8-1,2.4l-13.7,13.7c-0.6,0.6-1.5,1-2.4,1c-1.9,0-3.4-1.5-3.4-3.4V68.4z"/>
		<path class="st0" d="M-720,195.8c-6.7-101.1-92.6-178.2-193.1-173.1s-178.4,90.3-175,191.7c3.3,101.3,86.7,181.2,187.3,179.5
			c100.6-1.7,181.2-84.3,181.2-185.7L-720,195.8z M-849.1,135.2c8.5,0,15.4,6.9,15.4,15.4c0,8.5-6.9,15.4-15.4,15.4
			c-8.5,0-15.4-6.9-15.4-15.4C-864.5,142.1-857.6,135.2-849.1,135.2z M-903.9,52.9c19.8,0,36,16.1,36,36s-16.1,36-36,36
			s-36-16.1-36-36C-939.9,69.1-923.8,52.9-903.9,52.9z M-914.4,192.8l-7.6,22.9h-23c-1.9,0-3.4-1.5-3.4-3.4c0-1.9,1.5-3.4,3.4-3.4
			h18.1l6.1-18.2l0,0c0.5-1.4,1.7-2.4,3.2-2.4c1.9,0,3.4,1.5,3.4,3.4C-914.2,192.1-914.3,192.5-914.4,192.8L-914.4,192.8z
			 M-859.4,222.6v20.6h-13.7h-61.7h-13.7v-20.6H-859.4z M-862.8,215.7h-23l-7.6-22.9l0,0c-0.1-0.3-0.2-0.7-0.2-1.1
			c0-1.9,1.5-3.4,3.4-3.4c1.5,0,2.8,1,3.2,2.4l0,0l6.1,18.2h18.1l0,0c1.9,0,3.4,1.5,3.4,3.4C-859.4,214.2-860.9,215.7-862.8,215.7z
			 M-958.8,135.2c8.5,0,15.4,6.9,15.4,15.4c0,8.5-6.9,15.4-15.4,15.4c-8.5,0-15.4-6.9-15.4-15.4
			C-974.2,142.1-967.3,135.2-958.8,135.2z M-965.6,277.4c0,5.7-4.6,10.3-10.3,10.3s-10.3-4.6-10.3-10.3v-34.3h-30.8
			c-5.7,0-10.3-4.6-10.3-10.3c0-36.1,13-62.5,36.5-74.3l0,0c1.4-0.7,2.9-1.1,4.6-1.1c4.6,0,8.5,3,9.8,7.2l0,0l8.6,23.7h29.5
			c3.8,0,6.9,3.1,6.9,6.9c0,3.8-3.1,6.9-6.9,6.9h-34.3c-2.7,0-5-1.6-6.1-3.8l0,0l-10.5-16.3c-11.6,9.9-15.9,25.8-17.2,40.6h30.4
			c5.7,0,10.3,4.6,10.3,10.3V277.4z M-923.3,301.8l-8,37.6c-1.8,8.5-6.2,15.8-19.3,15.8c-8.7,0-13.3-3.1-13.3-10.9
			c0-1.6,0.2-3.3,0.5-4.8l8-37.8c0.2-0.7,0.5-0.9,1.2-0.9h4.2c0.5,0,0.8,0.2,0.8,0.7c0,0.2-0.1,0.3-0.1,0.5l-8,37.6
			c-0.3,1.4-0.6,2.9-0.6,4.4c0,4.4,3,6.2,8.1,6.2c6.9,0,11.1-3.3,12.6-10.5l7.9-37.8c0.2-0.7,0.5-0.9,1.2-0.9h4.2
			c0.5,0,0.8,0.2,0.8,0.7C-923.2,301.5-923.3,301.6-923.3,301.8z M-890.1,343c-4.4,8.4-11.8,11.1-21.1,11.1h-9.3
			c-0.4,0-0.6-0.2-0.6-0.5l11.1-52.1c0.2-0.6,0.5-0.8,0.9-0.8h7.8c9,0,18.1,0.3,18.1,15.1C-883.1,323.3-885.5,334.1-890.1,343z
			 M-844.1,302l-1.9,3.8c-0.2,0.2-0.5,0.2-1,0.2h-17.4l-3.7,17.4h15.4c0.5,0,0.8,0.2,0.8,0.6c0,0.2-0.1,0.4-0.1,0.5l-0.6,3.4
			c-0.2,0.8-0.5,0.9-1.2,0.9h-15.4l-4.1,19.7h18.8c0.5,0,0.9,0.1,0.9,0.5c0,0.4-0.1,0.8-0.2,1.1l-0.7,3c-0.2,0.6-0.5,0.9-1.1,0.9
			h-24.3c-0.4,0-0.6-0.2-0.6-0.5l11.1-52.1c0.2-0.6,0.5-0.8,0.9-0.8h23.5c1,0,1.2,0.2,1.2,0.5C-843.8,301.4-844.1,301.8-844.1,302z
			 M-790.8,243.2h-30.8v34.3c0,5.7-4.6,10.3-10.3,10.3s-10.3-4.6-10.3-10.3v-44.6c0-5.7,4.6-10.3,10.3-10.3h30.4
			c-1.2-14.8-5.6-30.7-17.2-40.6l-10.5,16.3l0,0c-1.1,2.2-3.4,3.8-6.1,3.8h-34.3c-3.8,0-6.9-3.1-6.9-6.9c0-3.8,3.1-6.9,6.9-6.9h29.5
			l8.6-23.7l0,0c1.3-4.2,5.2-7.2,9.8-7.2c1.7,0,3.2,0.4,4.6,1.1l0,0c23.6,11.8,36.5,38.2,36.5,74.3
			C-780.5,238.6-785.1,243.2-790.8,243.2z"/>
	</g>
	<g>
		<path class="st0" d="M-604.4,221c0,1.2-0.1,2-0.4,2.3c-0.3,0.3-1.1,0.4-2.3,0.4h-12.4c-1.2,0-1.9-0.1-2.2-0.4
			c-0.3-0.3-0.4-1.1-0.4-2.3v-36.8h-24.3V221c0,1.5-0.4,2.4-1.2,2.6c-0.3,0.1-0.8,0.1-1.5,0.1h-12.4c-1.2,0-2-0.1-2.3-0.4
			c-0.3-0.3-0.4-1.1-0.4-2.3v-83.7c0-1.2,0.1-2,0.4-2.3c0.3-0.3,1.1-0.4,2.3-0.4h12.4c1.5,0,2.4,0.4,2.6,1.2
			c0.1,0.3,0.1,0.9,0.1,1.5v33.8h24.3v-33.8c0-1.5,0.4-2.4,1.1-2.6c0.3-0.1,0.8-0.1,1.5-0.1h12.4c1.2,0,2,0.1,2.3,0.4
			c0.3,0.3,0.4,1.1,0.4,2.3V221z"/>
		<path class="st0" d="M-536.4,220.1c0,0.6-0.3,1-1,1.3l-10.2,4.1c-0.4,0.3-0.9,0.4-1.6,0.4c-1.2,0-2.5-2.6-3.9-7.7
			c-4.8,5-10.4,7.4-16.6,7.4c-6,0-10.7-1.8-14.2-5.3c-3.5-3.6-5.3-8.3-5.3-14.3c0-11.4,6.5-18.3,19.4-20.9c3.4-0.7,8.2-1.1,14.5-1.2
			v-4c0-3.7-0.6-6.3-1.8-7.7c-1.2-1.4-3.5-2.1-6.7-2.1c-3.9,0-8.7,1.1-14.5,3.4c-0.6,0.3-1,0.4-1.5,0.4c-0.6,0-1-0.4-1.3-1.3
			l-2.7-7.8c-0.2-0.5-0.3-0.9-0.3-1.4c0-1.4,2.4-2.8,7.2-4.1c4.8-1.3,9.8-2,15-2c10.5,0,17.2,3.3,20.2,10c1.2,2.7,1.8,6.3,1.8,10.8
			v26.5c0,5.2,1,9.9,3,14C-536.5,219.2-536.4,219.7-536.4,220.1z M-555.2,209v-14.3c-6.5,0-11.1,0.8-13.9,2.4
			c-2.8,1.6-4.2,4.3-4.2,8c0,2.5,0.8,4.7,2.4,6.4s3.6,2.6,5.9,2.6C-561.6,214-558.3,212.3-555.2,209z"/>
		<path class="st0" d="M-478.1,164.7c0,0.5-0.1,1-0.4,1.5l-4.5,8.3c-0.3,0.6-0.7,0.9-1.2,0.9c-0.4,0-0.8-0.2-1.3-0.5
			c-4-3-7.7-4.4-11-4.4c-8.6,0-12.9,7.3-12.9,21.8c0,13.7,4.3,20.6,13,20.6c3.5,0,7-1.2,10.7-3.6c0.6-0.5,1.1-0.7,1.4-0.7
			c0.4,0,0.7,0.3,1.1,1l3.1,7.9c0.3,0.6,0.4,1.1,0.4,1.5c0,1.7-2,3.2-6.1,4.8c-4.1,1.5-8.3,2.3-12.7,2.3c-8.8,0-15.7-2.9-20.6-8.7
			s-7.3-13.9-7.3-24.3c0-11,2.7-19.8,8-26.1c5.4-6.4,12.7-9.6,22-9.6c4,0,8,0.8,12.2,2.5C-480.2,161.5-478.1,163.1-478.1,164.7z"/>
		<path class="st0" d="M-413.3,218.2c0,0.6-0.4,1.1-1.3,1.6l-10.3,5.7c-0.6,0.3-1.1,0.5-1.3,0.5c-0.5,0-1.1-0.4-1.7-1.2l-24.3-31.2
			v27.9c0,1.5-0.7,2.2-2.2,2.2h-12.1c-1.5,0-2.2-0.7-2.2-2.2v-87c0-1.3,0.6-2.1,1.9-2.3l13.3-2.6c0.9,0,1.3,0.7,1.3,2.2v52.1
			l25.2-25.3c0.7-0.7,1.2-1,1.6-1c0.3,0,0.8,0.3,1.5,0.9l7,5.6c0.7,0.6,1,1.1,1,1.6c0,0.4-0.3,0.9-0.9,1.5l-21.3,20.6l23.9,28.8
			C-413.5,217.1-413.3,217.6-413.3,218.2z"/>
		<path class="st0" d="M-355.1,161.3c0,0.2-0.1,0.6-0.3,1.3l-13,47.6c-0.8,2.8-1.5,5.7-2.2,8.6c-2.2,9.1-3.9,15.3-5.2,18.8
			c-1.2,3.3-2.8,6-4.7,8.3c-3.8,4.5-9.1,6.8-15.7,6.8c-3.6,0-7.5-0.7-11.6-2.1s-6.2-2.8-6.2-4.1c0-0.2,0.2-0.7,0.5-1.4l4.1-8.3
			c0.3-0.6,0.6-1,1.1-1c0.3,0,0.6,0.1,1,0.4c3.9,1.9,7.3,2.9,10,2.9c2.8,0,4.9-0.7,6.3-2.1c1.5-1.4,2.7-4,3.8-7.8l1.5-5.5h-5.5
			c-1.2,0-2.1-0.6-2.5-1.7l-20.4-59.3c-0.3-0.7-0.4-1.2-0.4-1.4c0-0.7,0.7-1.2,2.1-1.3l14.2-1.4c0.7,0,1.2,0.6,1.5,1.8l8.6,31.9
			c1.7,6.4,3.4,13.9,5,22.5l2-10.9c0.5-2.7,0.9-4.7,1.2-6l1.3-5.6l7.3-31.8c0.3-1.3,0.8-2,1.4-2c0.2,0,0.5,0,1.1,0.1l11.4,1.3
			C-355.8,160.2-355.1,160.6-355.1,161.3z"/>
		<path class="st0" d="M-258.2,221c0,1.2-0.1,2-0.4,2.3c-0.3,0.3-1.1,0.4-2.3,0.4h-12.4c-1.2,0-1.9-0.1-2.2-0.4
			c-0.3-0.3-0.4-1.1-0.4-2.3v-36.8h-24.3V221c0,1.5-0.4,2.4-1.2,2.6c-0.3,0.1-0.8,0.1-1.5,0.1h-12.4c-1.2,0-2-0.1-2.3-0.4
			c-0.3-0.3-0.4-1.1-0.4-2.3v-83.7c0-1.2,0.1-2,0.4-2.3c0.3-0.3,1.1-0.4,2.3-0.4h12.4c1.5,0,2.4,0.4,2.6,1.2
			c0.1,0.3,0.1,0.9,0.1,1.5v33.8h24.3v-33.8c0-1.5,0.4-2.4,1.1-2.6c0.3-0.1,0.8-0.1,1.5-0.1h12.4c1.2,0,2,0.1,2.3,0.4
			c0.3,0.3,0.4,1.1,0.4,2.3V221z"/>
		<path class="st0" d="M-186.5,191.5c0,10.6-2.5,19-7.6,25.2s-11.9,9.3-20.6,9.3c-8.9,0-15.8-3-20.8-9.1c-5-6.1-7.5-14.5-7.5-25.3
			c0-10.5,2.5-18.8,7.5-24.8c5.3-6.3,12.4-9.5,21.3-9.5c8.5,0,15.3,3.1,20.2,9.2S-186.5,181-186.5,191.5z M-204,191.7
			c0-7.7-0.8-13.1-2.5-16.4c-1.7-3.3-4.5-4.9-8.4-4.9c-3.7,0-6.4,1.7-8.1,5c-1.7,3.3-2.5,8.7-2.5,16.2c0,7.5,0.8,12.9,2.5,16.3
			c1.7,3.3,4.4,5,8.2,5c3.8,0,6.6-1.7,8.3-5C-204.8,204.6-204,199.2-204,191.7z"/>
		<path class="st0" d="M-119.3,221.8c0,0.5-0.4,0.9-1.3,1.1l-10.9,2.5c-0.8,0.2-1.2,0.3-1.5,0.3c-1.5,0-2.8-2.4-3.9-7.2
			c-5.3,5-11.3,7.6-18,7.6c-6.5,0-11.4-1.9-14.7-5.6c-2.1-2.4-3.4-5.5-4-9.4c-0.3-1.8-0.4-5.3-0.4-10.4v-38.1c0-1.3,0.7-2,2-2.3
			l12.1-2.6c0.2-0.1,0.5-0.1,1.1-0.1c0.9,0,1.4,0.7,1.4,2v40.3c0,4.9,0.4,8,1.2,9.5c1.2,2.3,3.5,3.5,6.7,3.5c3.5,0,7.1-1.6,10.8-4.7
			v-45.6c0-1.3,0.7-2,2-2.3l12.1-2.6l1.3-0.1c0.8,0,1.1,0.7,1.1,2v47.9c0,5.5,0.8,10,2.5,13.3C-119.4,221-119.3,221.4-119.3,221.8z"
			/>
		<path class="st0" d="M-65,160.2c0,0.3-0.1,0.7-0.3,1.4l-4,10.5c-0.3,0.8-0.6,1.1-1,1.1c-0.1,0-0.4-0.1-1-0.3c-1.9-0.7-3.7-1-5.2-1
			c-2.8,0-6.1,2.1-9.8,6.2v43.3c0,1.5-0.7,2.2-2.2,2.2h-12.1c-1.4,0-2.2-0.7-2.2-2.2V182c0-6.2-1.3-12.3-3.9-18.1
			c-0.2-0.5-0.3-0.9-0.3-1.2c0-0.6,0.4-1,1.3-1.3l10.5-3.7c0.8-0.3,1.3-0.4,1.6-0.4c1.7,0,3.4,3.4,5,10.2c1-1.2,2.5-2.9,4.4-5.1
			c3.4-3.4,7.3-5.1,11.9-5.1c1.9,0,3.6,0.3,5.1,0.9C-65.7,158.8-65,159.4-65,160.2z"/>
		<g>
			<path class="st0" d="M-609.8,249.8c0,0.2,0,0.5-0.1,0.8l-11.7,55.2c-1.6,7.8-4.7,13.5-9.1,17.1c-4.8,4-11.3,6-19.4,6
				c-12.9,0-19.4-5.3-19.4-15.8c0-2.3,0.3-4.8,0.8-7.3l11.8-55.5c0.2-0.9,0.8-1.4,1.7-1.4h6.3c0.7,0,1.1,0.3,1.1,0.9
				c0,0.2,0,0.5-0.1,0.8l-11.8,55.2c-0.5,2.5-0.8,4.6-0.8,6.2c0,6,4,9,11.9,9c10,0,16.1-5.1,18.2-15.2l11.8-55.5
				c0.2-0.9,0.8-1.4,1.7-1.4h6C-610.2,248.9-609.8,249.2-609.8,249.8z"/>
			<path class="st0" d="M-550.9,270.1c0,8.6-1.4,17.3-4.3,26.4s-6.4,16.1-10.8,21.3c-5.4,6.4-13.6,9.6-24.7,9.6h-14.7
				c-0.7,0-1.1-0.3-1.1-0.9c0-0.2,0-0.5,0.1-0.8l16-75.2c0.2-0.9,0.7-1.4,1.7-1.4h11.7c4.6,0,7.9,0.1,9.8,0.4c3.7,0.5,6.7,1.6,9,3.3
				C-553.3,256.1-550.9,261.9-550.9,270.1z M-560.3,270.4c0-6.7-2.2-10.9-6.7-12.5c-1.7-0.6-4.3-0.9-8-0.9h-7.8l-13.2,62.2h8
				c6.7,0,11.8-2.6,15.5-7.7c3.3-4.6,6.2-10.9,8.6-18.9C-561.5,284.6-560.3,277.2-560.3,270.4z"/>
			<path class="st0" d="M-491.3,249.7c0,0.2-0.1,0.6-0.4,1.2l-2.6,5c-0.4,0.7-0.9,1.1-1.7,1.1h-25.5l-5.4,25.7h22.5
				c0.8,0,1.2,0.3,1.2,0.9c0,0.3-0.1,0.6-0.2,0.8l-0.9,4.6c-0.2,0.9-0.8,1.3-1.7,1.3h-22.6l-6.1,28.8h27.6c0.7,0,1.1,0.3,1.1,0.9
				c0,0.4,0,0.7-0.1,0.8l-1,5c-0.2,0.9-0.8,1.4-1.7,1.4H-544c-0.7,0-1.1-0.3-1.1-1c0-0.1,0-0.4,0.1-0.7l16-75.2
				c0.2-0.9,0.7-1.4,1.7-1.4h34.9C-491.7,248.9-491.3,249.2-491.3,249.7z"/>
		</g>
	</g>
</g>
<g>
	<path class="st0" d="M255.2,374.7h-6.4l-11.6,54.9h6c6.1,0,11.4-2.6,14.7-6.9c6.5-7.5,10.4-26,10.4-35.6
		C268.4,375.5,262,374.7,255.2,374.7z"/>
	<path class="st0" d="M250,134.9c20.5,0,37.2-16.7,37.2-37.2c0-20.5-16.7-37.2-37.2-37.2c-20.5,0-37.2,16.7-37.2,37.2
		C212.8,118.2,229.5,134.9,250,134.9z M245.6,71.4c0-2.4,2-4.4,4.4-4.4s4.4,2,4.4,4.4v15.7l10-10c0.8-0.8,1.9-1.3,3.1-1.3
		c2.4,0,4.4,2,4.4,4.4c0,1.2-0.5,2.3-1.3,3.1l-17.5,17.5c-0.8,0.8-1.9,1.3-3.1,1.3c-2.4,0-4.4-2-4.4-4.4V71.4z"/>
	<path class="st0" d="M484.9,234.2C476.4,105,366.6,6.6,238.3,13S10.4,128.5,14.7,257.9c4.3,129.4,110.7,231.5,239.2,229.3
		c128.5-2.2,231.5-107.7,231.5-237.2L484.9,234.2z M320.1,156.8c10.9,0,19.7,8.8,19.7,19.7c0,10.9-8.8,19.7-19.7,19.7
		c-10.9,0-19.7-8.8-19.7-19.7C300.4,165.6,309.2,156.8,320.1,156.8z M250,51.7c25.4,0,46,20.6,46,46s-20.6,46-46,46s-46-20.6-46-46
		C204,72.3,224.6,51.7,250,51.7z M236.6,230.4l-9.8,29.3h-29.4c-2.4,0-4.4-2-4.4-4.4c0-2.4,2-4.4,4.4-4.4h23.1l7.8-23.3l0.1,0
		c0.6-1.7,2.2-3,4.1-3c2.4,0,4.4,2,4.4,4.4C236.9,229.5,236.7,229.9,236.6,230.4L236.6,230.4z M306.9,268.4v26.3h-17.5h-78.8h-17.5
		v-26.3H306.9z M302.5,259.7h-29.4l-9.8-29.3l0.1,0c-0.2-0.4-0.3-0.9-0.3-1.4c0-2.4,2-4.4,4.4-4.4c1.9,0,3.5,1.3,4.1,3l0.1,0
		l7.8,23.3h23.1l0,0c2.4,0,4.4,2,4.4,4.4C306.9,257.7,305,259.7,302.5,259.7z M179.9,156.8c10.9,0,19.7,8.8,19.7,19.7
		c0,10.9-8.8,19.7-19.7,19.7c-10.9,0-19.7-8.8-19.7-19.7C160.2,165.6,169.1,156.8,179.9,156.8z M171.2,338.5
		c0,7.3-5.9,13.1-13.1,13.1c-7.3,0-13.1-5.9-13.1-13.1v-43.8h-39.4c-7.3,0-13.1-5.9-13.1-13.1c0-46.2,16.6-79.9,46.7-94.9l0,0
		c1.8-0.9,3.7-1.4,5.9-1.4c5.9,0,10.8,3.9,12.5,9.2l0.1,0l11,30.2h37.7c4.8,0,8.8,3.9,8.8,8.8c0,4.8-3.9,8.8-8.8,8.8h-43.8
		c-3.4,0-6.4-2-7.8-4.9l0,0l-13.4-20.8c-14.8,12.6-20.4,33-22,51.9H158c7.3,0,13.1,5.9,13.1,13.1V338.5z M225.2,369.6l-10.3,48
		c-2.3,10.9-7.9,20.1-24.7,20.1c-11.1,0-17-4-17-14c0-2.1,0.2-4.2,0.7-6.2l10.3-48.3c0.2-0.9,0.7-1.2,1.5-1.2h5.4c0.7,0,1,0.2,1,0.9
		c0,0.2-0.1,0.4-0.1,0.6l-10.2,48c-0.4,1.8-0.8,3.7-0.8,5.6c0,5.6,3.8,7.9,10.4,7.9c8.8,0,14.1-4.2,16-13.5l10.1-48.3
		c0.2-0.9,0.7-1.2,1.5-1.2h5.4c0.7,0,1,0.2,1,0.9C225.3,369.2,225.2,369.4,225.2,369.6z M267.7,422.2c-5.7,10.8-15,14.2-26.9,14.2
		h-11.9c-0.5,0-0.8-0.2-0.8-0.7l14.2-66.6c0.2-0.8,0.6-1,1.2-1h10c11.5,0,23.1,0.4,23.1,19.2C276.6,397.1,273.6,410.9,267.7,422.2z
		 M326.4,369.9l-2.4,4.9c-0.2,0.3-0.6,0.3-1.3,0.3h-22.2l-4.8,22.2h19.7c0.6,0,1,0.2,1,0.8c0,0.3-0.1,0.5-0.1,0.7l-0.8,4.3
		c-0.2,1-0.6,1.2-1.5,1.2h-19.7l-5.3,25.1h24c0.6,0,1.1,0.1,1.1,0.6c0,0.5-0.1,1-0.2,1.4l-0.9,3.9c-0.2,0.8-0.7,1.1-1.4,1.1h-31
		c-0.5,0-0.8-0.2-0.8-0.7l14.1-66.6c0.2-0.8,0.6-1,1.2-1h30c1.3,0,1.6,0.2,1.6,0.7C326.8,369.1,326.5,369.6,326.4,369.9z
		 M394.5,294.7h-39.4v43.8c0,7.3-5.9,13.1-13.1,13.1c-7.3,0-13.1-5.9-13.1-13.1v-56.9c0-7.3,5.9-13.1,13.1-13.1h38.9
		c-1.6-18.9-7.2-39.3-21.9-51.9l-13.4,20.8l0,0c-1.4,2.9-4.4,4.9-7.8,4.9h-43.8c-4.8,0-8.8-3.9-8.8-8.8c0-4.8,3.9-8.8,8.8-8.8h37.7
		l11-30.2l0.1,0c1.7-5.3,6.6-9.2,12.5-9.2c2.1,0,4.1,0.5,5.9,1.4l0,0c30.1,15,46.7,48.8,46.7,94.9
		C407.6,288.8,401.8,294.7,394.5,294.7z"/>
</g>
</svg>
