<?xml version="1.0" encoding="utf-8"?>
<!-- Generator: Adobe Illustrator 28.0.0, SVG Export Plug-In . SVG Version: 6.00 Build 0)  -->
<svg version="1.1" id="Ebene_1" xmlns="http://www.w3.org/2000/svg" xmlns:xlink="http://www.w3.org/1999/xlink" x="0px" y="0px"
	 viewBox="0 0 1080 416.4" style="enable-background:new 0 0 1080 416.4;" xml:space="preserve">
<style type="text/css">
	.st0{fill:#04529E;}
</style>
<g>
	<g>
		<path class="st0" d="M216.8,305.8h-5l-9,43h4.7c4.8,0,8.9-2,11.5-5.4c5.1-5.9,8.1-20.4,8.1-27.8
			C227.1,306.5,222.1,305.8,216.8,305.8z"/>
		<path class="st0" d="M212.7,118.1c16.1,0,29.1-13.1,29.1-29.1c0-16.1-13.1-29.1-29.1-29.1c-16.1,0-29.1,13.1-29.1,29.1
			C183.5,105,196.6,118.1,212.7,118.1z M209.2,68.4c0-1.9,1.5-3.4,3.4-3.4s3.4,1.5,3.4,3.4v12.3l7.9-7.9c0.6-0.6,1.5-1,2.4-1
			c1.9,0,3.4,1.5,3.4,3.4c0,0.9-0.4,1.8-1,2.4l-13.7,13.7c-0.6,0.6-1.5,1-2.4,1c-1.9,0-3.4-1.5-3.4-3.4V68.4z"/>
		<path class="st0" d="M396.6,195.8C389.9,94.7,304,17.7,203.5,22.7s-178.4,90.3-175,191.7c3.3,101.3,86.7,181.2,187.3,179.5
			C316.3,392.2,397,309.5,397,208.2L396.6,195.8z M267.5,135.2c8.5,0,15.4,6.9,15.4,15.4c0,8.5-6.9,15.4-15.4,15.4
			c-8.5,0-15.4-6.9-15.4-15.4C252.1,142.1,259,135.2,267.5,135.2z M212.7,52.9c19.8,0,36,16.1,36,36s-16.1,36-36,36s-36-16.1-36-36
			C176.7,69.1,192.8,52.9,212.7,52.9z M202.2,192.8l-7.6,22.9h-23c-1.9,0-3.4-1.5-3.4-3.4c0-1.9,1.5-3.4,3.4-3.4h18.1l6.1-18.2l0,0
			c0.5-1.4,1.7-2.4,3.2-2.4c1.9,0,3.4,1.5,3.4,3.4C202.4,192.1,202.3,192.5,202.2,192.8L202.2,192.8z M257.2,222.6v20.6h-13.7h-61.7
			h-13.7v-20.6H257.2z M253.8,215.7h-23l-7.6-22.9l0,0c-0.1-0.3-0.2-0.7-0.2-1.1c0-1.9,1.5-3.4,3.4-3.4c1.5,0,2.8,1,3.2,2.4l0,0
			l6.1,18.2h18.1l0,0c1.9,0,3.4,1.5,3.4,3.4C257.2,214.2,255.7,215.7,253.8,215.7z M157.8,135.2c8.5,0,15.4,6.9,15.4,15.4
			c0,8.5-6.9,15.4-15.4,15.4c-8.5,0-15.4-6.9-15.4-15.4C142.4,142.1,149.3,135.2,157.8,135.2z M151,277.4c0,5.7-4.6,10.3-10.3,10.3
			c-5.7,0-10.3-4.6-10.3-10.3v-34.3H99.6c-5.7,0-10.3-4.6-10.3-10.3c0-36.1,13-62.5,36.5-74.3l0,0c1.4-0.7,2.9-1.1,4.6-1.1
			c4.6,0,8.5,3,9.8,7.2l0,0l8.6,23.7h29.5c3.8,0,6.9,3.1,6.9,6.9c0,3.8-3.1,6.9-6.9,6.9h-34.3c-2.7,0-5-1.6-6.1-3.8l0,0L127.5,182
			c-11.6,9.9-15.9,25.8-17.2,40.6h30.4c5.7,0,10.3,4.6,10.3,10.3V277.4z M193.3,301.8l-8,37.6c-1.8,8.5-6.2,15.8-19.3,15.8
			c-8.7,0-13.3-3.1-13.3-10.9c0-1.6,0.2-3.3,0.5-4.8l8-37.8c0.2-0.7,0.5-0.9,1.2-0.9h4.2c0.5,0,0.8,0.2,0.8,0.7
			c0,0.2-0.1,0.3-0.1,0.5l-8,37.6c-0.3,1.4-0.6,2.9-0.6,4.4c0,4.4,3,6.2,8.1,6.2c6.9,0,11.1-3.3,12.6-10.5l7.9-37.8
			c0.2-0.7,0.5-0.9,1.2-0.9h4.2c0.5,0,0.8,0.2,0.8,0.7C193.4,301.5,193.3,301.6,193.3,301.8z M226.5,343
			c-4.4,8.4-11.8,11.1-21.1,11.1h-9.3c-0.4,0-0.6-0.2-0.6-0.5l11.1-52.1c0.2-0.6,0.5-0.8,0.9-0.8h7.8c9,0,18.1,0.3,18.1,15.1
			C233.5,323.3,231.1,334.1,226.5,343z M272.5,302l-1.9,3.8c-0.2,0.2-0.5,0.2-1,0.2h-17.4l-3.7,17.4h15.4c0.5,0,0.8,0.2,0.8,0.6
			c0,0.2-0.1,0.4-0.1,0.5L264,328c-0.2,0.8-0.5,0.9-1.2,0.9h-15.4l-4.1,19.7H262c0.5,0,0.9,0.1,0.9,0.5c0,0.4-0.1,0.8-0.2,1.1
			l-0.7,3c-0.2,0.6-0.5,0.9-1.1,0.9h-24.3c-0.4,0-0.6-0.2-0.6-0.5l11.1-52.1c0.2-0.6,0.5-0.8,0.9-0.8h23.5c1,0,1.2,0.2,1.2,0.5
			C272.8,301.4,272.6,301.8,272.5,302z M325.8,243.2h-30.8v34.3c0,5.7-4.6,10.3-10.3,10.3s-10.3-4.6-10.3-10.3v-44.6
			c0-5.7,4.6-10.3,10.3-10.3h30.4c-1.2-14.8-5.6-30.7-17.2-40.6l-10.5,16.3l0,0c-1.1,2.2-3.4,3.8-6.1,3.8H247
			c-3.8,0-6.9-3.1-6.9-6.9c0-3.8,3.1-6.9,6.9-6.9h29.5l8.6-23.7l0,0c1.3-4.2,5.2-7.2,9.8-7.2c1.7,0,3.2,0.4,4.6,1.1l0,0
			c23.6,11.8,36.5,38.2,36.5,74.3C336.1,238.6,331.5,243.2,325.8,243.2z"/>
	</g>
	<g>
		<path class="st0" d="M512.2,221c0,1.2-0.1,2-0.4,2.3c-0.3,0.3-1.1,0.4-2.3,0.4H497c-1.2,0-1.9-0.1-2.2-0.4
			c-0.3-0.3-0.4-1.1-0.4-2.3v-36.8h-24.3V221c0,1.5-0.4,2.4-1.2,2.6c-0.3,0.1-0.8,0.1-1.5,0.1H455c-1.2,0-2-0.1-2.3-0.4
			c-0.3-0.3-0.4-1.1-0.4-2.3v-83.7c0-1.2,0.1-2,0.4-2.3c0.3-0.3,1.1-0.4,2.3-0.4h12.4c1.5,0,2.4,0.4,2.6,1.2
			c0.1,0.3,0.1,0.9,0.1,1.5v33.8h24.3v-33.8c0-1.5,0.4-2.4,1.1-2.6c0.3-0.1,0.8-0.1,1.5-0.1h12.4c1.2,0,2,0.1,2.3,0.4
			c0.3,0.3,0.4,1.1,0.4,2.3V221z"/>
		<path class="st0" d="M580.2,220.1c0,0.6-0.3,1-1,1.3l-10.2,4.1c-0.4,0.3-0.9,0.4-1.6,0.4c-1.2,0-2.5-2.6-3.9-7.7
			c-4.8,5-10.4,7.4-16.6,7.4c-6,0-10.7-1.8-14.2-5.3s-5.3-8.3-5.3-14.3c0-11.4,6.5-18.3,19.4-20.9c3.4-0.7,8.2-1.1,14.5-1.2v-4
			c0-3.7-0.6-6.3-1.8-7.7c-1.2-1.4-3.5-2.1-6.7-2.1c-3.9,0-8.7,1.1-14.5,3.4c-0.6,0.3-1,0.4-1.5,0.4c-0.6,0-1-0.4-1.3-1.3l-2.7-7.8
			c-0.2-0.5-0.3-0.9-0.3-1.4c0-1.4,2.4-2.8,7.2-4.1c4.8-1.3,9.8-2,15-2c10.5,0,17.2,3.3,20.2,10c1.2,2.7,1.8,6.3,1.8,10.8v26.5
			c0,5.2,1,9.9,3,14C580.1,219.2,580.2,219.7,580.2,220.1z M561.4,209v-14.3c-6.5,0-11.1,0.8-13.9,2.4s-4.2,4.3-4.2,8
			c0,2.5,0.8,4.7,2.4,6.4s3.6,2.6,5.9,2.6C555,214,558.3,212.3,561.4,209z"/>
		<path class="st0" d="M638.5,164.7c0,0.5-0.1,1-0.4,1.5l-4.5,8.3c-0.3,0.6-0.7,0.9-1.2,0.9c-0.4,0-0.8-0.2-1.3-0.5
			c-4-3-7.7-4.4-11-4.4c-8.6,0-12.9,7.3-12.9,21.8c0,13.7,4.3,20.6,13,20.6c3.5,0,7-1.2,10.7-3.6c0.6-0.5,1.1-0.7,1.4-0.7
			c0.4,0,0.7,0.3,1.1,1l3.1,7.9c0.3,0.6,0.4,1.1,0.4,1.5c0,1.7-2,3.2-6.1,4.8c-4.1,1.5-8.3,2.3-12.7,2.3c-8.8,0-15.7-2.9-20.6-8.7
			s-7.3-13.9-7.3-24.3c0-11,2.7-19.8,8-26.1s12.7-9.6,22-9.6c4,0,8,0.8,12.2,2.5C636.4,161.5,638.5,163.1,638.5,164.7z"/>
		<path class="st0" d="M703.3,218.2c0,0.6-0.4,1.1-1.3,1.6l-10.3,5.7c-0.6,0.3-1.1,0.5-1.3,0.5c-0.5,0-1.1-0.4-1.7-1.2l-24.3-31.2
			v27.9c0,1.5-0.7,2.2-2.2,2.2h-12.1c-1.5,0-2.2-0.7-2.2-2.2v-87c0-1.3,0.6-2.1,1.9-2.3l13.3-2.6c0.9,0,1.3,0.7,1.3,2.2v52.1
			l25.2-25.3c0.7-0.7,1.2-1,1.6-1c0.3,0,0.8,0.3,1.5,0.9l7,5.6c0.7,0.6,1,1.1,1,1.6c0,0.4-0.3,0.9-0.9,1.5l-21.3,20.6l23.9,28.8
			C703.1,217.1,703.3,217.6,703.3,218.2z"/>
		<path class="st0" d="M761.5,161.3c0,0.2-0.1,0.6-0.3,1.3l-13,47.6c-0.8,2.8-1.5,5.7-2.2,8.6c-2.2,9.1-3.9,15.3-5.2,18.8
			c-1.2,3.3-2.8,6-4.7,8.3c-3.8,4.5-9.1,6.8-15.7,6.8c-3.6,0-7.5-0.7-11.6-2.1c-4.1-1.4-6.2-2.8-6.2-4.1c0-0.2,0.2-0.7,0.5-1.4
			l4.1-8.3c0.3-0.6,0.6-1,1.1-1c0.3,0,0.6,0.1,1,0.4c3.9,1.9,7.3,2.9,10,2.9c2.8,0,4.9-0.7,6.3-2.1c1.5-1.4,2.7-4,3.8-7.8l1.5-5.5
			h-5.5c-1.2,0-2.1-0.6-2.5-1.7l-20.4-59.3c-0.3-0.7-0.4-1.2-0.4-1.4c0-0.7,0.7-1.2,2.1-1.3l14.2-1.4c0.7,0,1.2,0.6,1.5,1.8
			l8.6,31.9c1.7,6.4,3.4,13.9,5,22.5l2-10.9c0.5-2.7,0.9-4.7,1.2-6l1.3-5.6l7.3-31.8c0.3-1.3,0.8-2,1.4-2c0.2,0,0.5,0,1.1,0.1
			l11.4,1.3C760.8,160.2,761.5,160.6,761.5,161.3z"/>
		<path class="st0" d="M858.4,221c0,1.2-0.1,2-0.4,2.3c-0.3,0.3-1.1,0.4-2.3,0.4h-12.4c-1.2,0-1.9-0.1-2.2-0.4
			c-0.3-0.3-0.4-1.1-0.4-2.3v-36.8h-24.3V221c0,1.5-0.4,2.4-1.2,2.6c-0.3,0.1-0.8,0.1-1.5,0.1h-12.4c-1.2,0-2-0.1-2.3-0.4
			c-0.3-0.3-0.4-1.1-0.4-2.3v-83.7c0-1.2,0.1-2,0.4-2.3c0.3-0.3,1.1-0.4,2.3-0.4h12.4c1.5,0,2.4,0.4,2.6,1.2
			c0.1,0.3,0.1,0.9,0.1,1.5v33.8h24.3v-33.8c0-1.5,0.4-2.4,1.1-2.6c0.3-0.1,0.8-0.1,1.5-0.1h12.4c1.2,0,2,0.1,2.3,0.4
			c0.3,0.3,0.4,1.1,0.4,2.3V221z"/>
		<path class="st0" d="M930.1,191.5c0,10.6-2.5,19-7.6,25.2s-11.9,9.3-20.6,9.3c-8.9,0-15.8-3-20.8-9.1c-5-6.1-7.5-14.5-7.5-25.3
			c0-10.5,2.5-18.8,7.5-24.8c5.3-6.3,12.4-9.5,21.3-9.5c8.5,0,15.3,3.1,20.2,9.2S930.1,181,930.1,191.5z M912.6,191.7
			c0-7.7-0.8-13.1-2.5-16.4c-1.7-3.3-4.5-4.9-8.4-4.9c-3.7,0-6.4,1.7-8.1,5c-1.7,3.3-2.5,8.7-2.5,16.2c0,7.5,0.8,12.9,2.5,16.3
			c1.7,3.3,4.4,5,8.2,5c3.8,0,6.6-1.7,8.3-5C911.8,204.6,912.6,199.2,912.6,191.7z"/>
		<path class="st0" d="M997.3,221.8c0,0.5-0.4,0.9-1.3,1.1l-10.9,2.5c-0.8,0.2-1.2,0.3-1.5,0.3c-1.5,0-2.8-2.4-3.9-7.2
			c-5.3,5-11.3,7.6-18,7.6c-6.5,0-11.4-1.9-14.7-5.6c-2.1-2.4-3.4-5.5-4-9.4c-0.3-1.8-0.4-5.3-0.4-10.4v-38.1c0-1.3,0.7-2,2-2.3
			l12.1-2.6c0.2-0.1,0.5-0.1,1.1-0.1c0.9,0,1.4,0.7,1.4,2v40.3c0,4.9,0.4,8,1.2,9.5c1.2,2.3,3.5,3.5,6.7,3.5c3.5,0,7.1-1.6,10.8-4.7
			v-45.6c0-1.3,0.7-2,2-2.3l12.1-2.6l1.3-0.1c0.8,0,1.1,0.7,1.1,2v47.9c0,5.5,0.8,10,2.5,13.3C997.2,221,997.3,221.4,997.3,221.8z"
			/>
		<path class="st0" d="M1051.6,160.2c0,0.3-0.1,0.7-0.3,1.4l-4,10.5c-0.3,0.8-0.6,1.1-1,1.1c-0.1,0-0.4-0.1-1-0.3
			c-1.9-0.7-3.7-1-5.2-1c-2.8,0-6.1,2.1-9.8,6.2v43.3c0,1.5-0.7,2.2-2.2,2.2h-12.1c-1.4,0-2.2-0.7-2.2-2.2V182
			c0-6.2-1.3-12.3-3.9-18.1c-0.2-0.5-0.3-0.9-0.3-1.2c0-0.6,0.4-1,1.3-1.3l10.5-3.7c0.8-0.3,1.3-0.4,1.6-0.4c1.7,0,3.4,3.4,5,10.2
			c1-1.2,2.5-2.9,4.4-5.1c3.4-3.4,7.3-5.1,11.9-5.1c1.9,0,3.6,0.3,5.1,0.9C1050.9,158.8,1051.6,159.4,1051.6,160.2z"/>
		<g>
			<path class="st0" d="M506.8,249.8c0,0.2,0,0.5-0.1,0.8L495,305.8c-1.6,7.8-4.7,13.5-9.1,17.1c-4.8,4-11.3,6-19.4,6
				c-12.9,0-19.4-5.3-19.4-15.8c0-2.3,0.3-4.8,0.8-7.3l11.8-55.5c0.2-0.9,0.8-1.4,1.7-1.4h6.3c0.7,0,1.1,0.3,1.1,0.9
				c0,0.2,0,0.5-0.1,0.8l-11.8,55.2c-0.5,2.5-0.8,4.6-0.8,6.2c0,6,4,9,11.9,9c10,0,16.1-5.1,18.2-15.2l11.8-55.5
				c0.2-0.9,0.8-1.4,1.7-1.4h6C506.4,248.9,506.8,249.2,506.8,249.8z"/>
			<path class="st0" d="M565.7,270.1c0,8.6-1.4,17.3-4.3,26.4s-6.4,16.1-10.8,21.3c-5.4,6.4-13.6,9.6-24.7,9.6h-14.7
				c-0.7,0-1.1-0.3-1.1-0.9c0-0.2,0-0.5,0.1-0.8l16-75.2c0.2-0.9,0.7-1.4,1.7-1.4h11.7c4.6,0,7.9,0.1,9.8,0.4c3.7,0.5,6.7,1.6,9,3.3
				C563.3,256.1,565.7,261.9,565.7,270.1z M556.3,270.4c0-6.7-2.2-10.9-6.7-12.5c-1.7-0.6-4.3-0.9-8-0.9h-7.8l-13.2,62.2h8
				c6.7,0,11.8-2.6,15.5-7.7c3.3-4.6,6.2-10.9,8.6-18.9C555.1,284.6,556.3,277.2,556.3,270.4z"/>
			<path class="st0" d="M625.3,249.7c0,0.2-0.1,0.6-0.4,1.2l-2.6,5c-0.4,0.7-0.9,1.1-1.7,1.1h-25.5l-5.4,25.7h22.5
				c0.8,0,1.2,0.3,1.2,0.9c0,0.3-0.1,0.6-0.2,0.8l-0.9,4.6c-0.2,0.9-0.8,1.3-1.7,1.3h-22.6l-6.1,28.8h27.6c0.7,0,1.1,0.3,1.1,0.9
				c0,0.4,0,0.7-0.1,0.8l-1,5c-0.2,0.9-0.8,1.4-1.7,1.4h-35.2c-0.7,0-1.1-0.3-1.1-1c0-0.1,0-0.4,0.1-0.7l16-75.2
				c0.2-0.9,0.7-1.4,1.7-1.4h34.9C624.9,248.9,625.3,249.2,625.3,249.7z"/>
		</g>
	</g>
</g>
<g>
	<path class="st0" d="M1371.8,374.7h-6.4l-11.6,54.9h6c6.1,0,11.4-2.6,14.7-6.9c6.5-7.5,10.4-26,10.4-35.6
		C1385,375.5,1378.6,374.7,1371.8,374.7z"/>
	<path class="st0" d="M1366.6,134.9c20.5,0,37.2-16.7,37.2-37.2c0-20.5-16.7-37.2-37.2-37.2c-20.5,0-37.2,16.7-37.2,37.2
		C1329.4,118.2,1346.1,134.9,1366.6,134.9z M1362.2,71.4c0-2.4,2-4.4,4.4-4.4c2.4,0,4.4,2,4.4,4.4v15.7l10-10
		c0.8-0.8,1.9-1.3,3.1-1.3c2.4,0,4.4,2,4.4,4.4c0,1.2-0.5,2.3-1.3,3.1l-17.5,17.5c-0.8,0.8-1.9,1.3-3.1,1.3c-2.4,0-4.4-2-4.4-4.4
		V71.4z"/>
	<path class="st0" d="M1601.5,234.2C1593,105,1483.2,6.6,1354.9,13S1127,128.5,1131.3,257.9c4.3,129.4,110.7,231.5,239.2,229.3
		c128.5-2.2,231.5-107.7,231.5-237.2L1601.5,234.2z M1436.7,156.8c10.9,0,19.7,8.8,19.7,19.7c0,10.9-8.8,19.7-19.7,19.7
		s-19.7-8.8-19.7-19.7C1417,165.6,1425.8,156.8,1436.7,156.8z M1366.6,51.7c25.4,0,46,20.6,46,46s-20.6,46-46,46
		c-25.4,0-46-20.6-46-46C1320.6,72.3,1341.3,51.7,1366.6,51.7z M1353.2,230.4l-9.8,29.3h-29.4c-2.4,0-4.4-2-4.4-4.4
		c0-2.4,2-4.4,4.4-4.4h23.1l7.8-23.3l0.1,0c0.6-1.7,2.2-3,4.1-3c2.4,0,4.4,2,4.4,4.4C1353.5,229.5,1353.3,229.9,1353.2,230.4
		L1353.2,230.4z M1423.5,268.4v26.3H1406h-78.8h-17.5v-26.3H1423.5z M1419.1,259.7h-29.4l-9.8-29.3l0.1,0c-0.2-0.4-0.3-0.9-0.3-1.4
		c0-2.4,2-4.4,4.4-4.4c1.9,0,3.5,1.3,4.1,3l0.1,0l7.8,23.3h23.1l0,0c2.4,0,4.4,2,4.4,4.4C1423.5,257.7,1421.6,259.7,1419.1,259.7z
		 M1296.5,156.8c10.9,0,19.7,8.8,19.7,19.7c0,10.9-8.8,19.7-19.7,19.7c-10.9,0-19.7-8.8-19.7-19.7
		C1276.8,165.6,1285.7,156.8,1296.5,156.8z M1287.8,338.5c0,7.3-5.9,13.1-13.1,13.1c-7.3,0-13.1-5.9-13.1-13.1v-43.8h-39.4
		c-7.3,0-13.1-5.9-13.1-13.1c0-46.2,16.6-79.9,46.7-94.9l0,0c1.8-0.9,3.7-1.4,5.9-1.4c5.9,0,10.8,3.9,12.5,9.2l0.1,0l11,30.2h37.7
		c4.8,0,8.8,3.9,8.8,8.8c0,4.8-3.9,8.8-8.8,8.8H1279c-3.4,0-6.4-2-7.8-4.9l0,0l-13.4-20.8c-14.8,12.6-20.4,33-22,51.9h38.9
		c7.3,0,13.1,5.9,13.1,13.1V338.5z M1341.8,369.6l-10.3,48c-2.3,10.9-7.9,20.1-24.7,20.1c-11.1,0-17-4-17-14c0-2.1,0.2-4.2,0.7-6.2
		l10.3-48.3c0.2-0.9,0.7-1.2,1.5-1.2h5.4c0.7,0,1,0.2,1,0.9c0,0.2-0.1,0.4-0.1,0.6l-10.2,48c-0.4,1.8-0.8,3.7-0.8,5.6
		c0,5.6,3.8,7.9,10.4,7.9c8.8,0,14.1-4.2,16-13.5l10.1-48.3c0.2-0.9,0.7-1.2,1.5-1.2h5.4c0.7,0,1,0.2,1,0.9
		C1341.9,369.2,1341.8,369.4,1341.8,369.6z M1384.3,422.2c-5.7,10.8-15,14.2-26.9,14.2h-11.9c-0.5,0-0.8-0.2-0.8-0.7l14.2-66.6
		c0.2-0.8,0.6-1,1.2-1h10c11.5,0,23.1,0.4,23.1,19.2C1393.2,397.1,1390.2,410.9,1384.3,422.2z M1443,369.9l-2.4,4.9
		c-0.2,0.3-0.6,0.3-1.3,0.3h-22.2l-4.8,22.2h19.7c0.6,0,1,0.2,1,0.8c0,0.3-0.1,0.5-0.1,0.7l-0.8,4.3c-0.2,1-0.6,1.2-1.5,1.2h-19.7
		l-5.3,25.1h24c0.6,0,1.1,0.1,1.1,0.6c0,0.5-0.1,1-0.2,1.4l-0.9,3.9c-0.2,0.8-0.7,1.1-1.4,1.1h-31c-0.5,0-0.8-0.2-0.8-0.7l14.1-66.6
		c0.2-0.8,0.6-1,1.2-1h30c1.3,0,1.6,0.2,1.6,0.7C1443.4,369.1,1443.1,369.6,1443,369.9z M1511.1,294.7h-39.4v43.8
		c0,7.3-5.9,13.1-13.1,13.1c-7.3,0-13.1-5.9-13.1-13.1v-56.9c0-7.3,5.9-13.1,13.1-13.1h38.9c-1.6-18.9-7.2-39.3-21.9-51.9
		l-13.4,20.8l0,0c-1.4,2.9-4.4,4.9-7.8,4.9h-43.8c-4.8,0-8.8-3.9-8.8-8.8c0-4.8,3.9-8.8,8.8-8.8h37.7l11-30.2l0.1,0
		c1.7-5.3,6.6-9.2,12.5-9.2c2.1,0,4.1,0.5,5.9,1.4l0,0c30.1,15,46.7,48.8,46.7,94.9C1524.2,288.8,1518.4,294.7,1511.1,294.7z"/>
</g>
</svg>
